<svg xmlns="http://www.w3.org/2000/svg" width="246.113" height="48" viewBox="0 0 246.113 48">
  <g id="Logo-Maynooth-Option1" transform="translate(-0.042 0.02)">
    <path id="Path_1" data-name="Path 1" d="M33.163,47.884h0a7.8,7.8,0,0,1-8.954-6L18.183,8.5A7.436,7.436,0,0,1,24.554.077h0a7.8,7.8,0,0,1,8.954,6l6.026,33.383A7.436,7.436,0,0,1,33.163,47.884Z" transform="translate(-2.509 0)" fill="#cc4c6e"/>
    <path id="Path_2" data-name="Path 2" d="M58.259,47.884h0a7.8,7.8,0,0,1-8.954-6L43.279,8.5C42.5,4.534,45.346.807,49.564.077h0a7.8,7.8,0,0,1,8.954,6l6.026,33.383C65.319,43.427,62.478,47.154,58.259,47.884Z" transform="translate(-5.996 0)" fill="#cc4c6e"/>
    <path id="Path_3" data-name="Path 3" d="M4.655,47.323h0a7.179,7.179,0,0,1-3.96-9.641l15.583-33.3A8,8,0,0,1,26.522.656h0a7.179,7.179,0,0,1,3.96,9.641L14.814,43.6A7.854,7.854,0,0,1,4.655,47.323Z" transform="translate(0 -0.008)" fill="#f3b541"/>
    <path id="Path_4" data-name="Path 4" d="M29.655,47.323h0a7.179,7.179,0,0,1-3.96-9.641l15.583-33.3A8,8,0,0,1,51.522.656h0a7.179,7.179,0,0,1,3.96,9.641L39.9,43.6A7.986,7.986,0,0,1,29.655,47.323Z" transform="translate(-3.477 -0.008)" fill="#4cb3aa"/>
    <path id="Path_5" data-name="Path 5" d="M54.655,47.323h0a7.179,7.179,0,0,1-3.96-9.641l15.669-33.3A8,8,0,0,1,76.608.656h0a7.179,7.179,0,0,1,3.96,9.641L64.9,43.6A7.926,7.926,0,0,1,54.655,47.323Z" transform="translate(-9.33 -0.008)" fill="#842c68"/>
    <g id="Group_1" data-name="Group 1" transform="translate(73.024 13.433)">
      <path id="Path_6" data-name="Path 6" d="M101.122,18.417a.5.5,0,0,1,.517-.517h.344c.344,0,.517.086.6.43l6.371,13.689c.517,1.119,1.119,2.5,1.119,2.5h.086s.6-1.464,1.119-2.5l6.371-13.689a.647.647,0,0,1,.6-.43h.344a.457.457,0,0,1,.517.517l1.722,21.351c0,.344-.172.6-.517.6h-.258a.457.457,0,0,1-.517-.517l-1.377-16.616c-.086-1.119-.086-3.013-.086-3.013H118s-.6,1.894-1.119,3.013l-5.768,12.4a.647.647,0,0,1-.6.43h-.517c-.344,0-.517-.086-.6-.43l-5.768-12.4c-.517-1.033-1.205-3.013-1.205-3.013h-.086s0,1.98-.086,3.013l-1.464,16.7a.5.5,0,0,1-.517.517h-.344c-.344,0-.517-.172-.517-.6Z" transform="translate(-99.4 -17.556)"/>
      <path id="Path_7" data-name="Path 7" d="M136.2,18.43a.551.551,0,0,1,.6-.43h.6a.551.551,0,0,1,.6.43l8.007,21.351c.086.344,0,.6-.43.6h-.344a.551.551,0,0,1-.6-.43l-2.841-7.318h-9.47l-2.755,7.318a.551.551,0,0,1-.6.43h-.344c-.43,0-.6-.258-.43-.6Zm5.166,12.914-3.444-9.126c-.344-.947-.861-2.669-.861-2.669h-.086s-.517,1.722-.861,2.669l-3.444,9.126Z" transform="translate(-103.395 -17.57)"/>
      <path id="Path_8" data-name="Path 8" d="M156.212,30.656,148.98,18.6c-.258-.344-.086-.6.344-.6h.344a.576.576,0,0,1,.6.344l5.079,8.523c.6,1.119,1.377,2.5,1.377,2.5h.086a23.33,23.33,0,0,1,1.377-2.5l5.079-8.523a.65.65,0,0,1,.6-.344h.344c.43,0,.6.258.344.6l-7.232,12.053v9.212a.457.457,0,0,1-.517.517h-.086a.457.457,0,0,1-.517-.517Z" transform="translate(-106.279 -17.57)"/>
      <path id="Path_9" data-name="Path 9" d="M172.2,18.517a.457.457,0,0,1,.517-.517h.344a.783.783,0,0,1,.689.344l12.569,17.3c.775,1.033,1.808,2.841,1.808,2.841h.086s-.172-1.722-.172-2.841V18.517a.457.457,0,0,1,.517-.517h.258a.457.457,0,0,1,.517.517V39.867a.457.457,0,0,1-.517.517h-.344a.783.783,0,0,1-.689-.344l-12.569-17.3c-.775-1.033-1.808-2.841-1.808-2.841h-.086s.172,1.722.172,2.841V39.781a.457.457,0,0,1-.517.517h-.258a.457.457,0,0,1-.517-.517Z" transform="translate(-109.525 -17.57)"/>
      <path id="Path_10" data-name="Path 10" d="M209.464,17.5a11.212,11.212,0,0,1,11.364,11.45c0,6.629-4.907,11.795-11.364,11.795S198.1,35.579,198.1,28.95A11.212,11.212,0,0,1,209.464,17.5Zm0,21.953c5.682,0,9.9-4.563,9.9-10.5a9.9,9.9,0,1,0-19.8,0C199.564,34.891,203.782,39.453,209.464,39.453Z" transform="translate(-113.127 -17.5)"/>
      <path id="Path_11" data-name="Path 11" d="M239.964,17.5a11.212,11.212,0,0,1,11.364,11.45c0,6.629-4.907,11.795-11.364,11.795S228.6,35.579,228.6,28.95A11.212,11.212,0,0,1,239.964,17.5Zm0,21.953c5.682,0,9.9-4.563,9.9-10.5a9.9,9.9,0,1,0-19.8,0C230.064,34.891,234.282,39.453,239.964,39.453Z" transform="translate(-117.369 -17.5)"/>
      <path id="Path_12" data-name="Path 12" d="M264.051,19.205h-7.834a.457.457,0,0,1-.517-.517v-.172a.457.457,0,0,1,.517-.517h17.046a.457.457,0,0,1,.517.517v.172a.457.457,0,0,1-.517.517h-7.834V39.867a.457.457,0,0,1-.517.517h-.344a.457.457,0,0,1-.517-.517Z" transform="translate(-121.138 -17.57)"/>
      <path id="Path_13" data-name="Path 13" d="M280.8,18.517a.457.457,0,0,1,.517-.517h.258a.457.457,0,0,1,.517.517V28.5h14.377V18.517a.457.457,0,0,1,.517-.517h.258a.457.457,0,0,1,.517.517V39.867a.457.457,0,0,1-.517.517h-.258a.457.457,0,0,1-.517-.517V29.795H282.177V39.867a.457.457,0,0,1-.517.517H281.4a.457.457,0,0,1-.517-.517V18.517Z" transform="translate(-124.629 -17.57)"/>
    </g>
  </g>
</svg>
